<svg width="1432" height="55" viewBox="0 0 1432 55" fill="none" xmlns="http://www.w3.org/2000/svg">
<path d="M8.576 34.352C7.104 34.352 5.84533 33.9467 4.8 33.136C3.75467 32.3253 2.95467 31.216 2.4 29.808C1.86667 28.4 1.6 26.8 1.6 25.008C1.6 23.0027 2.06933 21.104 3.008 19.312C3.94667 17.4987 5.17333 16.048 6.688 14.96C8.224 13.8507 9.81333 13.296 11.456 13.296C12.8427 13.296 13.9093 13.6053 14.656 14.224C15.4027 14.8427 15.776 15.568 15.776 16.4C15.776 16.8907 15.6267 17.3387 15.328 17.744C15.0507 18.1493 14.6453 18.4587 14.112 18.672C14.048 18.544 14.016 18.3413 14.016 18.064C14.016 17.808 14.048 17.552 14.112 17.296C14.1547 16.9547 14.176 16.7093 14.176 16.56C14.176 16.3467 14.144 16.1653 14.08 16.016C13.7813 15.2693 12.9707 14.896 11.648 14.896C11.2853 14.896 10.8587 14.928 10.368 14.992C9.23733 15.1413 8.11733 15.7067 7.008 16.688C5.89867 17.648 4.992 18.8533 4.288 20.304C3.584 21.7547 3.232 23.2373 3.232 24.752C3.232 26.0747 3.44533 27.3333 3.872 28.528C4.32 29.7013 4.96 30.6507 5.792 31.376C6.624 32.1013 7.616 32.464 8.768 32.464C10.2613 32.464 11.4987 32.2827 12.48 31.92C13.4827 31.5573 14.464 31.0027 15.424 30.256C15.5307 30.1707 15.648 30.128 15.776 30.128C16.0107 30.128 16.1707 30.2667 16.256 30.544C16.3627 31.056 16.0213 31.6107 15.232 32.208C14.4427 32.8053 13.4187 33.3173 12.16 33.744C10.9013 34.1493 9.70667 34.352 8.576 34.352ZM33.5625 33.84C33.1785 33.84 32.8692 33.68 32.6345 33.36C32.4212 33.0187 32.2292 32.5067 32.0585 31.824C31.8878 31.12 31.6212 29.904 31.2585 28.176C30.8958 29.6053 30.2132 30.7467 29.2105 31.6C28.2078 32.432 26.9812 32.848 25.5305 32.848C24.2078 32.848 23.0878 32.3893 22.1705 31.472C21.2745 30.5333 20.6025 29.3067 20.1545 27.792C19.7065 26.256 19.4825 24.6027 19.4825 22.832C19.4825 22.0213 19.5572 21.328 19.7065 20.752C19.8772 20.1547 20.0798 19.7067 20.3145 19.408C20.5705 19.1093 20.8158 18.9707 21.0505 18.992C21.3065 18.992 21.4345 19.1627 21.4345 19.504C21.4345 19.7813 21.3598 20.2187 21.2105 20.816C21.0612 21.4773 20.9865 22.2347 20.9865 23.088C20.9865 24.368 21.1678 25.616 21.5305 26.832C21.9145 28.048 22.4692 29.0507 23.1945 29.84C23.9412 30.608 24.8158 30.992 25.8185 30.992C26.6505 30.992 27.4078 30.7467 28.0905 30.256C28.7732 29.7653 29.3065 29.1467 29.6905 28.4C30.0958 27.6533 30.2985 26.9173 30.2985 26.192V21.104C30.5332 20.656 30.8532 20.432 31.2585 20.432C31.6212 20.432 31.8665 20.7413 31.9945 21.36C32.1225 21.9787 32.1865 22.8533 32.1865 23.984C32.1865 24.944 32.1758 25.68 32.1545 26.192C32.2825 26.896 32.4745 27.6107 32.7305 28.336C33.0078 29.0613 33.3492 29.8827 33.7545 30.8C34.2452 31.9307 34.4905 32.624 34.4905 32.88C34.4905 33.52 34.1812 33.84 33.5625 33.84ZM42.2133 34C41.9999 34.0427 41.8613 34.064 41.7973 34.064C41.1359 34.064 40.6773 33.5733 40.4213 32.592C40.1866 31.6107 40.0693 30.2347 40.0693 28.464C40.0693 27.7387 40.0906 26.608 40.1333 25.072C40.1759 24.1333 40.1973 23.4293 40.1973 22.96C37.5733 22.96 36.2613 22.6613 36.2613 22.064C36.2613 21.872 36.2826 21.7227 36.3253 21.616C36.3893 21.5093 36.5173 21.456 36.7093 21.456L40.1973 21.232C40.1759 20.1867 40.1226 19.0453 40.0373 17.808C39.9519 16.6987 39.8986 15.6747 39.8773 14.736C39.8773 14.5013 39.9733 14.3413 40.1653 14.256C40.3573 14.1493 40.5599 14.096 40.7733 14.096C41.0293 14.096 41.2426 14.2347 41.4133 14.512C41.5839 14.768 41.6693 15.0347 41.6693 15.312L41.8933 21.168L44.5493 21.296C44.9546 21.2533 45.2959 21.328 45.5733 21.52C45.8719 21.712 46.0319 22.032 46.0533 22.48C45.6053 22.672 45.1146 22.7893 44.5813 22.832C44.0479 22.8747 43.1519 22.896 41.8933 22.896C41.8933 24.88 41.9893 28.144 42.1813 32.688C42.1813 33.1573 42.1813 33.488 42.1813 33.68C42.2026 33.8507 42.2133 33.9573 42.2133 34ZM70.6593 34C70.1259 34.1067 69.7526 33.8507 69.5393 33.232C69.3259 32.592 69.2086 31.6533 69.1873 30.416C69.1446 28.6027 69.0806 27.088 68.9953 25.872C68.9313 24.6347 68.8033 23.5253 68.6113 22.544C66.6273 23.4827 64.6646 24.3467 62.7233 25.136C60.8033 25.904 59.8433 26.2773 59.8433 26.256L59.9073 33.072C59.9073 33.392 59.7153 33.5947 59.3313 33.68C58.8193 33.7867 58.4779 33.4987 58.3073 32.816C58.1579 32.112 58.0513 31.0133 57.9873 29.52C57.9446 28.176 57.8806 27.2267 57.7953 26.672C57.1979 26.9707 56.6859 27.1093 56.2593 27.088C56.1739 26.9173 56.1313 26.5653 56.1313 26.032C56.3019 25.968 56.5046 25.8933 56.7393 25.808C56.9953 25.7227 57.1766 25.6267 57.2833 25.52C57.4113 25.392 57.4753 25.2107 57.4753 24.976C57.4753 23.9093 57.3686 22.2667 57.1553 20.048C56.9206 18.0427 56.8033 16.3893 56.8033 15.088L56.8353 13.616C56.8993 13.4667 56.9739 13.3707 57.0593 13.328C57.1659 13.2853 57.3046 13.264 57.4753 13.264C57.8379 13.264 58.0193 13.3813 58.0193 13.616L59.3313 24.88C59.9286 24.7307 60.9206 24.3467 62.3073 23.728C63.6939 23.1093 65.8273 22.1067 68.7073 20.72L68.8353 13.616C68.8353 12.784 69.1446 12.368 69.7633 12.368C70.0193 12.368 70.1899 12.464 70.2753 12.656C70.3819 12.848 70.4139 13.168 70.3713 13.616L70.3393 19.152C70.3393 21.0293 70.4459 23.472 70.6593 26.48C70.7233 27.0773 70.7766 27.6533 70.8193 28.208C70.8833 28.7413 70.9366 29.2533 70.9792 29.744C71.1073 31.0667 71.1926 31.9093 71.2353 32.272C71.2993 32.6133 71.3953 32.9227 71.5233 33.2C71.4166 33.6267 71.1286 33.8933 70.6593 34ZM81.957 34C80.5917 34 79.333 33.7333 78.181 33.2C77.029 32.6667 76.1117 31.9093 75.429 30.928C74.7463 29.9467 74.405 28.816 74.405 27.536C74.405 26.1067 74.6717 24.7733 75.205 23.536C75.7383 22.2773 76.517 21.2747 77.541 20.528C78.5863 19.76 79.8023 19.376 81.189 19.376C82.6397 19.376 83.7383 19.8453 84.485 20.784C85.2317 21.7013 85.5837 22.864 85.541 24.272C85.541 25.5307 85.0397 26.4907 84.037 27.152C83.0557 27.8133 81.797 28.144 80.261 28.144C80.0263 28.144 79.6743 28.1227 79.205 28.08C78.437 27.9947 77.893 27.8773 77.573 27.728C77.253 27.5787 77.093 27.28 77.093 26.832C77.093 26.6827 77.1357 26.576 77.221 26.512C77.3063 26.4267 77.477 26.384 77.733 26.384C78.0103 26.384 78.501 26.448 79.205 26.576C79.8877 26.704 80.4957 26.768 81.029 26.768C82.9917 26.768 83.973 25.9147 83.973 24.208C83.973 23.184 83.781 22.3733 83.397 21.776C83.0343 21.1787 82.3837 20.88 81.445 20.88C80.421 20.88 79.5037 21.1573 78.693 21.712C77.8823 22.2453 77.253 22.9493 76.805 23.824C76.3783 24.6987 76.165 25.6267 76.165 26.608C76.165 28.2933 76.6343 29.68 77.573 30.768C78.5117 31.8347 79.9623 32.368 81.925 32.368C82.1597 32.368 82.5543 32.3467 83.109 32.304C83.3437 32.2827 83.6317 32.2187 83.973 32.112C84.3143 32.0053 84.5597 31.9307 84.709 31.888C85.6263 31.568 86.2983 31.408 86.725 31.408C87.045 31.408 87.2903 31.4933 87.461 31.664C86.9277 32.4747 86.1277 33.072 85.061 33.456C84.0157 33.8187 82.981 34 81.957 34ZM91.5648 34C90.6901 32.2933 89.9968 30.288 89.4848 27.984C88.9941 25.68 88.7488 23.6853 88.7488 22C88.7488 21.3387 88.8981 20.912 89.1968 20.72C89.3674 20.6133 89.4954 20.56 89.5807 20.56C89.7301 20.56 89.8368 20.6773 89.9008 20.912C89.9861 21.1467 90.0714 21.5733 90.1568 22.192L90.3168 23.344C90.5514 22.192 90.9994 21.2853 91.6608 20.624C92.3434 19.9413 93.1754 19.6 94.1568 19.6C95.2448 19.6 96.0554 19.8133 96.5888 20.24C97.1221 20.6453 97.3888 21.328 97.3888 22.288C96.3221 21.776 95.3514 21.52 94.4768 21.52C93.6448 21.52 92.9301 21.744 92.3328 22.192C91.7354 22.64 91.3194 23.3013 91.0848 24.176C90.8928 24.7733 90.7968 25.3387 90.7968 25.872C90.7968 26.448 90.8714 26.992 91.0208 27.504C91.1914 27.9947 91.4474 28.6027 91.7888 29.328C92.1088 30.0747 92.3541 30.7147 92.5248 31.248C92.7168 31.7813 92.8234 32.3573 92.8448 32.976C92.8448 33.3387 92.7168 33.6053 92.4608 33.776C92.2048 33.9253 91.9061 34 91.5648 34ZM106.207 34C104.842 34 103.583 33.7333 102.431 33.2C101.279 32.6667 100.362 31.9093 99.679 30.928C98.9963 29.9467 98.655 28.816 98.655 27.536C98.655 26.1067 98.9217 24.7733 99.455 23.536C99.9883 22.2773 100.767 21.2747 101.791 20.528C102.836 19.76 104.052 19.376 105.439 19.376C106.89 19.376 107.988 19.8453 108.735 20.784C109.482 21.7013 109.834 22.864 109.791 24.272C109.791 25.5307 109.29 26.4907 108.287 27.152C107.306 27.8133 106.047 28.144 104.511 28.144C104.276 28.144 103.924 28.1227 103.455 28.08C102.687 27.9947 102.143 27.8773 101.823 27.728C101.503 27.5787 101.343 27.28 101.343 26.832C101.343 26.6827 101.386 26.576 101.471 26.512C101.556 26.4267 101.727 26.384 101.983 26.384C102.26 26.384 102.751 26.448 103.455 26.576C104.138 26.704 104.746 26.768 105.279 26.768C107.242 26.768 108.223 25.9147 108.223 24.208C108.223 23.184 108.031 22.3733 107.647 21.776C107.284 21.1787 106.634 20.88 105.695 20.88C104.671 20.88 103.754 21.1573 102.943 21.712C102.132 22.2453 101.503 22.9493 101.055 23.824C100.628 24.6987 100.415 25.6267 100.415 26.608C100.415 28.2933 100.884 29.68 101.823 30.768C102.762 31.8347 104.212 32.368 106.175 32.368C106.41 32.368 106.804 32.3467 107.359 32.304C107.594 32.2827 107.882 32.2187 108.223 32.112C108.564 32.0053 108.81 31.9307 108.959 31.888C109.876 31.568 110.548 31.408 110.975 31.408C111.295 31.408 111.54 31.4933 111.711 31.664C111.178 32.4747 110.378 33.072 109.311 33.456C108.266 33.8187 107.231 34 106.207 34Z" fill="white"/>
<line x1="140" y1="30.5" x2="1432" y2="30.4999" stroke="white" stroke-dasharray="55 55"/>
</svg>
