<svg width="34" height="33" viewBox="0 0 34 33" fill="none" xmlns="http://www.w3.org/2000/svg">
<path d="M27.7667 28.875L18.8417 20.2125C18.1333 20.7625 17.3188 21.1979 16.3979 21.5188C15.4771 21.8396 14.4972 22 13.4583 22C10.8847 22 8.7066 21.1349 6.92396 19.4047C5.14132 17.6745 4.25 15.5604 4.25 13.0625C4.25 10.5646 5.14132 8.45052 6.92396 6.72031C8.7066 4.9901 10.8847 4.125 13.4583 4.125C16.0319 4.125 18.2101 4.9901 19.9927 6.72031C21.7753 8.45052 22.6667 10.5646 22.6667 13.0625C22.6667 14.0708 22.5014 15.0219 22.1708 15.9156C21.8403 16.8094 21.3917 17.6 20.825 18.2875L29.75 26.95L27.7667 28.875ZM13.4583 19.25C15.2292 19.25 16.7344 18.6484 17.974 17.4453C19.2135 16.2422 19.8333 14.7812 19.8333 13.0625C19.8333 11.3438 19.2135 9.88281 17.974 8.67969C16.7344 7.47656 15.2292 6.875 13.4583 6.875C11.6875 6.875 10.1823 7.47656 8.94271 8.67969C7.70312 9.88281 7.08333 11.3438 7.08333 13.0625C7.08333 14.7812 7.70312 16.2422 8.94271 17.4453C10.1823 18.6484 11.6875 19.25 13.4583 19.25Z" fill="white" fill-opacity="0.61"/>
</svg>
